solid OpenSCAD_Model
  facet normal 1 0 0
    outer loop
      vertex 69.8 14.4 17.5
      vertex 69.8 0 17.5
      vertex 69.8 14.4 13.5
    endloop
  endfacet
  facet normal 1 0 0
    outer loop
      vertex 69.8 18.4 13.5
      vertex 69.8 32.8 17.5
      vertex 69.8 18.4 17.5
    endloop
  endfacet
  facet normal 1 0 0
    outer loop
      vertex 69.8 18.3829 13.239
      vertex 69.8 32.8 17.5
      vertex 69.8 18.4 13.5
    endloop
  endfacet
  facet normal 1 0 0
    outer loop
      vertex 69.8 18.3318 12.9824
      vertex 69.8 32.8 17.5
      vertex 69.8 18.3829 13.239
    endloop
  endfacet
  facet normal 1 0 0
    outer loop
      vertex 69.8 18.2477 12.7346
      vertex 69.8 32.8 17.5
      vertex 69.8 18.3318 12.9824
    endloop
  endfacet
  facet normal 1 0 0
    outer loop
      vertex 69.8 32.8 17.5
      vertex 69.8 18.2477 12.7346
      vertex 69.8 32.8 0
    endloop
  endfacet
  facet normal 1 -0 0
    outer loop
      vertex 69.8 18.132 12.5
      vertex 69.8 32.8 0
      vertex 69.8 18.2477 12.7346
    endloop
  endfacet
  facet normal 1 -0 0
    outer loop
      vertex 69.8 17.9867 12.2825
      vertex 69.8 32.8 0
      vertex 69.8 18.132 12.5
    endloop
  endfacet
  facet normal 1 -0 0
    outer loop
      vertex 69.8 17.8142 12.0858
      vertex 69.8 32.8 0
      vertex 69.8 17.9867 12.2825
    endloop
  endfacet
  facet normal 1 -0 0
    outer loop
      vertex 69.8 17.6175 11.9133
      vertex 69.8 32.8 0
      vertex 69.8 17.8142 12.0858
    endloop
  endfacet
  facet normal 1 -0 0
    outer loop
      vertex 69.8 17.4 11.768
      vertex 69.8 32.8 0
      vertex 69.8 17.6175 11.9133
    endloop
  endfacet
  facet normal 1 -0 0
    outer loop
      vertex 69.8 17.1654 11.6522
      vertex 69.8 32.8 0
      vertex 69.8 17.4 11.768
    endloop
  endfacet
  facet normal 1 -0 0
    outer loop
      vertex 69.8 16.9176 11.5682
      vertex 69.8 32.8 0
      vertex 69.8 17.1654 11.6522
    endloop
  endfacet
  facet normal 1 -0 0
    outer loop
      vertex 69.8 16.661 11.5171
      vertex 69.8 32.8 0
      vertex 69.8 16.9176 11.5682
    endloop
  endfacet
  facet normal 1 -0 0
    outer loop
      vertex 69.8 16.4 11.5
      vertex 69.8 32.8 0
      vertex 69.8 16.661 11.5171
    endloop
  endfacet
  facet normal 1 0 0
    outer loop
      vertex 69.8 0 0
      vertex 69.8 16.4 11.5
      vertex 69.8 16.139 11.5171
    endloop
  endfacet
  facet normal 1 0 0
    outer loop
      vertex 69.8 0 0
      vertex 69.8 16.139 11.5171
      vertex 69.8 15.8824 11.5682
    endloop
  endfacet
  facet normal 1 0 0
    outer loop
      vertex 69.8 0 0
      vertex 69.8 15.8824 11.5682
      vertex 69.8 15.6346 11.6522
    endloop
  endfacet
  facet normal 1 0 0
    outer loop
      vertex 69.8 0 0
      vertex 69.8 15.6346 11.6522
      vertex 69.8 15.4 11.768
    endloop
  endfacet
  facet normal 1 0 0
    outer loop
      vertex 69.8 0 0
      vertex 69.8 15.4 11.768
      vertex 69.8 15.1825 11.9133
    endloop
  endfacet
  facet normal 1 0 0
    outer loop
      vertex 69.8 0 17.5
      vertex 69.8 14.4171 13.239
      vertex 69.8 14.4 13.5
    endloop
  endfacet
  facet normal 1 0 0
    outer loop
      vertex 69.8 0 17.5
      vertex 69.8 14.4682 12.9824
      vertex 69.8 14.4171 13.239
    endloop
  endfacet
  facet normal 1 0 0
    outer loop
      vertex 69.8 0 17.5
      vertex 69.8 14.5523 12.7346
      vertex 69.8 14.4682 12.9824
    endloop
  endfacet
  facet normal 1 0 0
    outer loop
      vertex 69.8 0 0
      vertex 69.8 14.5523 12.7346
      vertex 69.8 0 17.5
    endloop
  endfacet
  facet normal 1 0 0
    outer loop
      vertex 69.8 14.5523 12.7346
      vertex 69.8 0 0
      vertex 69.8 14.668 12.5
    endloop
  endfacet
  facet normal 1 0 0
    outer loop
      vertex 69.8 14.668 12.5
      vertex 69.8 0 0
      vertex 69.8 14.8133 12.2825
    endloop
  endfacet
  facet normal 1 0 0
    outer loop
      vertex 69.8 14.8133 12.2825
      vertex 69.8 0 0
      vertex 69.8 14.9858 12.0858
    endloop
  endfacet
  facet normal 1 0 0
    outer loop
      vertex 69.8 14.9858 12.0858
      vertex 69.8 0 0
      vertex 69.8 15.1825 11.9133
    endloop
  endfacet
  facet normal 1 0 0
    outer loop
      vertex 69.8 16.4 11.5
      vertex 69.8 0 0
      vertex 69.8 32.8 0
    endloop
  endfacet
  facet normal 0 0 1
    outer loop
      vertex 69.8 32.8 17.5
      vertex 67.8 30.8 17.5
      vertex 69.8 18.4 17.5
    endloop
  endfacet
  facet normal 0 0 1
    outer loop
      vertex 69.8 32.8 17.5
      vertex 2 30.8 17.5
      vertex 67.8 30.8 17.5
    endloop
  endfacet
  facet normal 0 0 1
    outer loop
      vertex 2 30.8 17.5
      vertex 0 32.8 17.5
      vertex 2 2 17.5
    endloop
  endfacet
  facet normal -0 0 1
    outer loop
      vertex 0 32.8 17.5
      vertex 2 30.8 17.5
      vertex 69.8 32.8 17.5
    endloop
  endfacet
  facet normal 0 0 1
    outer loop
      vertex 69.8 18.4 17.5
      vertex 67.8 30.8 17.5
      vertex 67.8 18.4 17.5
    endloop
  endfacet
  facet normal 0 0 1
    outer loop
      vertex 67.8 2 17.5
      vertex 69.8 14.4 17.5
      vertex 67.8 14.4 17.5
    endloop
  endfacet
  facet normal 0 0 1
    outer loop
      vertex 69.8 14.4 17.5
      vertex 67.8 2 17.5
      vertex 69.8 0 17.5
    endloop
  endfacet
  facet normal -0 0 1
    outer loop
      vertex 2 2 17.5
      vertex 69.8 0 17.5
      vertex 67.8 2 17.5
    endloop
  endfacet
  facet normal 0 0 1
    outer loop
      vertex 2 2 17.5
      vertex 0 0 17.5
      vertex 69.8 0 17.5
    endloop
  endfacet
  facet normal 0 0 1
    outer loop
      vertex 0 0 17.5
      vertex 2 2 17.5
      vertex 0 32.8 17.5
    endloop
  endfacet
  facet normal 0 0 -1
    outer loop
      vertex 0 0 0
      vertex 69.8 32.8 0
      vertex 69.8 0 0
    endloop
  endfacet
  facet normal -0 0 -1
    outer loop
      vertex 69.8 32.8 0
      vertex 0 0 0
      vertex 0 32.8 0
    endloop
  endfacet
  facet normal -1 0 0
    outer loop
      vertex 0 31.15 9.5
      vertex 0 32.8 0
      vertex 0 31.15 1.5
    endloop
  endfacet
  facet normal -1 0 0
    outer loop
      vertex 0 32.8 0
      vertex 0 1.65 1.5
      vertex 0 31.15 1.5
    endloop
  endfacet
  facet normal -1 -0 0
    outer loop
      vertex 0 1.65 1.5
      vertex 0 0 0
      vertex 0 1.65 9.5
    endloop
  endfacet
  facet normal -1 0 0
    outer loop
      vertex 0 0 0
      vertex 0 1.65 1.5
      vertex 0 32.8 0
    endloop
  endfacet
  facet normal -1 0 0
    outer loop
      vertex 0 32.8 0
      vertex 0 31.15 9.5
      vertex 0 32.8 17.5
    endloop
  endfacet
  facet normal -1 0 0
    outer loop
      vertex 0 1.65 9.5
      vertex 0 32.8 17.5
      vertex 0 31.15 9.5
    endloop
  endfacet
  facet normal -1 0 0
    outer loop
      vertex 0 1.65 9.5
      vertex 0 0 17.5
      vertex 0 32.8 17.5
    endloop
  endfacet
  facet normal -1 0 0
    outer loop
      vertex 0 0 17.5
      vertex 0 1.65 9.5
      vertex 0 0 0
    endloop
  endfacet
  facet normal 0 1 -0
    outer loop
      vertex 69.8 32.8 0
      vertex 0 32.8 17.5
      vertex 69.8 32.8 17.5
    endloop
  endfacet
  facet normal 0 1 0
    outer loop
      vertex 0 32.8 17.5
      vertex 69.8 32.8 0
      vertex 0 32.8 0
    endloop
  endfacet
  facet normal 0 -1 0
    outer loop
      vertex 0 0 0
      vertex 69.8 0 17.5
      vertex 0 0 17.5
    endloop
  endfacet
  facet normal 0 -1 -0
    outer loop
      vertex 69.8 0 17.5
      vertex 0 0 0
      vertex 69.8 0 0
    endloop
  endfacet
  facet normal -1 0 0
    outer loop
      vertex 67.8 16.9176 11.5682
      vertex 67.8 26.8 6
      vertex 67.8 26.8 2
    endloop
  endfacet
  facet normal -1 0 0
    outer loop
      vertex 67.8 26.8 6
      vertex 67.8 18.3829 13.239
      vertex 67.8 18.4 13.5
    endloop
  endfacet
  facet normal -1 0 0
    outer loop
      vertex 67.8 26.8 6
      vertex 67.8 18.3318 12.9824
      vertex 67.8 18.3829 13.239
    endloop
  endfacet
  facet normal -1 0 0
    outer loop
      vertex 67.8 26.8 6
      vertex 67.8 18.2477 12.7346
      vertex 67.8 18.3318 12.9824
    endloop
  endfacet
  facet normal -1 0 0
    outer loop
      vertex 67.8 26.8 6
      vertex 67.8 18.132 12.5
      vertex 67.8 18.2477 12.7346
    endloop
  endfacet
  facet normal -1 0 0
    outer loop
      vertex 67.8 26.8 6
      vertex 67.8 17.9867 12.2825
      vertex 67.8 18.132 12.5
    endloop
  endfacet
  facet normal -1 0 0
    outer loop
      vertex 67.8 26.8 6
      vertex 67.8 17.8142 12.0858
      vertex 67.8 17.9867 12.2825
    endloop
  endfacet
  facet normal -1 0 0
    outer loop
      vertex 67.8 26.8 6
      vertex 67.8 17.6175 11.9133
      vertex 67.8 17.8142 12.0858
    endloop
  endfacet
  facet normal -1 0 0
    outer loop
      vertex 67.8 26.8 6
      vertex 67.8 17.4 11.768
      vertex 67.8 17.6175 11.9133
    endloop
  endfacet
  facet normal -1 0 0
    outer loop
      vertex 67.8 26.8 6
      vertex 67.8 17.1654 11.6522
      vertex 67.8 17.4 11.768
    endloop
  endfacet
  facet normal -1 0 0
    outer loop
      vertex 67.8 26.8 6
      vertex 67.8 16.9176 11.5682
      vertex 67.8 17.1654 11.6522
    endloop
  endfacet
  facet normal -1 0 0
    outer loop
      vertex 67.8 26.8 2
      vertex 67.8 16.661 11.5171
      vertex 67.8 16.9176 11.5682
    endloop
  endfacet
  facet normal -1 0 0
    outer loop
      vertex 67.8 26.8 2
      vertex 67.8 16.4 11.5
      vertex 67.8 16.661 11.5171
    endloop
  endfacet
  facet normal -1 0 0
    outer loop
      vertex 67.8 6 2
      vertex 67.8 16.4 11.5
      vertex 67.8 26.8 2
    endloop
  endfacet
  facet normal -1 -0 0
    outer loop
      vertex 67.8 16.4 11.5
      vertex 67.8 6 2
      vertex 67.8 16.139 11.5171
    endloop
  endfacet
  facet normal -1 -0 0
    outer loop
      vertex 67.8 16.139 11.5171
      vertex 67.8 6 2
      vertex 67.8 15.8824 11.5682
    endloop
  endfacet
  facet normal -1 0 0
    outer loop
      vertex 67.8 6 6
      vertex 67.8 15.8824 11.5682
      vertex 67.8 6 2
    endloop
  endfacet
  facet normal -1 -0 0
    outer loop
      vertex 67.8 15.8824 11.5682
      vertex 67.8 6 6
      vertex 67.8 15.6346 11.6522
    endloop
  endfacet
  facet normal -1 -0 0
    outer loop
      vertex 67.8 15.6346 11.6522
      vertex 67.8 6 6
      vertex 67.8 15.4 11.768
    endloop
  endfacet
  facet normal -1 -0 0
    outer loop
      vertex 67.8 15.4 11.768
      vertex 67.8 6 6
      vertex 67.8 15.1825 11.9133
    endloop
  endfacet
  facet normal -1 -0 0
    outer loop
      vertex 67.8 15.1825 11.9133
      vertex 67.8 6 6
      vertex 67.8 14.9858 12.0858
    endloop
  endfacet
  facet normal -1 -0 0
    outer loop
      vertex 67.8 14.9858 12.0858
      vertex 67.8 6 6
      vertex 67.8 14.8133 12.2825
    endloop
  endfacet
  facet normal -1 -0 0
    outer loop
      vertex 67.8 14.8133 12.2825
      vertex 67.8 6 6
      vertex 67.8 14.668 12.5
    endloop
  endfacet
  facet normal -1 -0 0
    outer loop
      vertex 67.8 14.668 12.5
      vertex 67.8 6 6
      vertex 67.8 14.5523 12.7346
    endloop
  endfacet
  facet normal -1 -0 0
    outer loop
      vertex 67.8 14.5523 12.7346
      vertex 67.8 6 6
      vertex 67.8 14.4682 12.9824
    endloop
  endfacet
  facet normal -1 -0 0
    outer loop
      vertex 67.8 14.4682 12.9824
      vertex 67.8 6 6
      vertex 67.8 14.4171 13.239
    endloop
  endfacet
  facet normal -1 -0 0
    outer loop
      vertex 67.8 14.4171 13.239
      vertex 67.8 6 6
      vertex 67.8 14.4 13.5
    endloop
  endfacet
  facet normal -1 0 0
    outer loop
      vertex 67.8 2 17.5
      vertex 67.8 14.4 13.5
      vertex 67.8 6 6
    endloop
  endfacet
  facet normal -1 0 0
    outer loop
      vertex 67.8 2 17.5
      vertex 67.8 6 6
      vertex 67.8 2 6
    endloop
  endfacet
  facet normal -1 0 0
    outer loop
      vertex 67.8 14.4 13.5
      vertex 67.8 2 17.5
      vertex 67.8 14.4 17.5
    endloop
  endfacet
  facet normal -1 0 0
    outer loop
      vertex 67.8 26.8 6
      vertex 67.8 30.8 17.5
      vertex 67.8 30.8 6
    endloop
  endfacet
  facet normal -1 0 0
    outer loop
      vertex 67.8 18.4 13.5
      vertex 67.8 30.8 17.5
      vertex 67.8 26.8 6
    endloop
  endfacet
  facet normal -1 -0 0
    outer loop
      vertex 67.8 30.8 17.5
      vertex 67.8 18.4 13.5
      vertex 67.8 18.4 17.5
    endloop
  endfacet
  facet normal -0 0 1
    outer loop
      vertex 3 25.8 2
      vertex 7 7 2
      vertex 7 25.8 2
    endloop
  endfacet
  facet normal 0 0 1
    outer loop
      vertex 7 7 2
      vertex 3 25.8 2
      vertex 3 7 2
    endloop
  endfacet
  facet normal -0 0 1
    outer loop
      vertex 7 29.8 2
      vertex 60.8 26.8 2
      vertex 60.8 30.8 2
    endloop
  endfacet
  facet normal 0 0 1
    outer loop
      vertex 60.8 26.8 2
      vertex 7 25.8 2
      vertex 60.8 6 2
    endloop
  endfacet
  facet normal 0 0 1
    outer loop
      vertex 60.8 26.8 2
      vertex 7 29.8 2
      vertex 7 25.8 2
    endloop
  endfacet
  facet normal -0 0 1
    outer loop
      vertex 2 30.8 2
      vertex 7 29.8 2
      vertex 60.8 30.8 2
    endloop
  endfacet
  facet normal 0 0 1
    outer loop
      vertex 2 30.8 2
      vertex 3 25.8 2
      vertex 3 29.8 2
    endloop
  endfacet
  facet normal 0 0 1
    outer loop
      vertex 3 25.8 2
      vertex 2 30.8 2
      vertex 3 7 2
    endloop
  endfacet
  facet normal 0 0 1
    outer loop
      vertex 2 2 2
      vertex 3 7 2
      vertex 2 30.8 2
    endloop
  endfacet
  facet normal 0 0 1
    outer loop
      vertex 7 29.8 2
      vertex 2 30.8 2
      vertex 3 29.8 2
    endloop
  endfacet
  facet normal -0 0 1
    outer loop
      vertex 60.8 26.8 2
      vertex 67.8 6 2
      vertex 67.8 26.8 2
    endloop
  endfacet
  facet normal 0 0 1
    outer loop
      vertex 67.8 6 2
      vertex 60.8 26.8 2
      vertex 60.8 6 2
    endloop
  endfacet
  facet normal -0 0 1
    outer loop
      vertex 7 7 2
      vertex 60.8 6 2
      vertex 7 25.8 2
    endloop
  endfacet
  facet normal 0 0 1
    outer loop
      vertex 7 3 2
      vertex 60.8 6 2
      vertex 7 7 2
    endloop
  endfacet
  facet normal 0 0 1
    outer loop
      vertex 60.8 6 2
      vertex 7 3 2
      vertex 60.8 2 2
    endloop
  endfacet
  facet normal 0 0 1
    outer loop
      vertex 2 2 2
      vertex 7 3 2
      vertex 3 3 2
    endloop
  endfacet
  facet normal 0 0 1
    outer loop
      vertex 7 3 2
      vertex 2 2 2
      vertex 60.8 2 2
    endloop
  endfacet
  facet normal 0 0 1
    outer loop
      vertex 3 7 2
      vertex 2 2 2
      vertex 3 3 2
    endloop
  endfacet
  facet normal 1 0 0
    outer loop
      vertex 2 30.8 17.5
      vertex 2 29.15 7.5
      vertex 2 30.8 2
    endloop
  endfacet
  facet normal 1 0 0
    outer loop
      vertex 2 30.8 17.5
      vertex 2 3.65 7.5
      vertex 2 29.15 7.5
    endloop
  endfacet
  facet normal 1 0 0
    outer loop
      vertex 2 2 2
      vertex 2 3.65 7.5
      vertex 2 2 17.5
    endloop
  endfacet
  facet normal 1 -0 0
    outer loop
      vertex 2 2 17.5
      vertex 2 3.65 7.5
      vertex 2 30.8 17.5
    endloop
  endfacet
  facet normal 1 -0 0
    outer loop
      vertex 2 29.15 3.5
      vertex 2 30.8 2
      vertex 2 29.15 7.5
    endloop
  endfacet
  facet normal 1 -0 0
    outer loop
      vertex 2 3.65 3.5
      vertex 2 30.8 2
      vertex 2 29.15 3.5
    endloop
  endfacet
  facet normal 1 0 0
    outer loop
      vertex 2 3.65 3.5
      vertex 2 2 2
      vertex 2 30.8 2
    endloop
  endfacet
  facet normal 1 0 0
    outer loop
      vertex 2 3.65 7.5
      vertex 2 2 2
      vertex 2 3.65 3.5
    endloop
  endfacet
  facet normal 0 -1 0
    outer loop
      vertex 2 30.8 17.5
      vertex 60.8 30.8 6
      vertex 67.8 30.8 17.5
    endloop
  endfacet
  facet normal 0 -1 0
    outer loop
      vertex 2 30.8 2
      vertex 60.8 30.8 6
      vertex 2 30.8 17.5
    endloop
  endfacet
  facet normal 0 -1 -0
    outer loop
      vertex 60.8 30.8 6
      vertex 2 30.8 2
      vertex 60.8 30.8 2
    endloop
  endfacet
  facet normal 0 -1 -0
    outer loop
      vertex 67.8 30.8 17.5
      vertex 60.8 30.8 6
      vertex 67.8 30.8 6
    endloop
  endfacet
  facet normal 0 1 0
    outer loop
      vertex 60.8 2 6
      vertex 67.8 2 17.5
      vertex 67.8 2 6
    endloop
  endfacet
  facet normal 0 1 0
    outer loop
      vertex 67.8 2 17.5
      vertex 60.8 2 6
      vertex 2 2 17.5
    endloop
  endfacet
  facet normal 0 1 0
    outer loop
      vertex 2 2 2
      vertex 60.8 2 6
      vertex 60.8 2 2
    endloop
  endfacet
  facet normal 0 1 0
    outer loop
      vertex 60.8 2 6
      vertex 2 2 2
      vertex 2 2 17.5
    endloop
  endfacet
  facet normal 0 0 -1
    outer loop
      vertex 1 3.65 7.5
      vertex 2 29.15 7.5
      vertex 2 3.65 7.5
    endloop
  endfacet
  facet normal -0 0 -1
    outer loop
      vertex 2 29.15 7.5
      vertex 1 3.65 7.5
      vertex 1 29.15 7.5
    endloop
  endfacet
  facet normal -0 0 1
    outer loop
      vertex 1 29.15 3.5
      vertex 2 3.65 3.5
      vertex 2 29.15 3.5
    endloop
  endfacet
  facet normal 0 0 1
    outer loop
      vertex 2 3.65 3.5
      vertex 1 29.15 3.5
      vertex 1 3.65 3.5
    endloop
  endfacet
  facet normal 0 -1 0
    outer loop
      vertex 1 29.15 3.5
      vertex 2 29.15 7.5
      vertex 1 29.15 7.5
    endloop
  endfacet
  facet normal 0 -1 -0
    outer loop
      vertex 2 29.15 7.5
      vertex 1 29.15 3.5
      vertex 2 29.15 3.5
    endloop
  endfacet
  facet normal 0 1 -0
    outer loop
      vertex 2 3.65 3.5
      vertex 1 3.65 7.5
      vertex 2 3.65 7.5
    endloop
  endfacet
  facet normal 0 1 0
    outer loop
      vertex 1 3.65 7.5
      vertex 2 3.65 3.5
      vertex 1 3.65 3.5
    endloop
  endfacet
  facet normal -1 0 0
    outer loop
      vertex 1 31.15 1.5
      vertex 1 29.15 3.5
      vertex 1 31.15 9.5
    endloop
  endfacet
  facet normal -1 0 0
    outer loop
      vertex 1 31.15 1.5
      vertex 1 3.65 3.5
      vertex 1 29.15 3.5
    endloop
  endfacet
  facet normal -1 -0 0
    outer loop
      vertex 1 3.65 3.5
      vertex 1 1.65 1.5
      vertex 1 3.65 7.5
    endloop
  endfacet
  facet normal -1 0 0
    outer loop
      vertex 1 1.65 1.5
      vertex 1 3.65 3.5
      vertex 1 31.15 1.5
    endloop
  endfacet
  facet normal -1 0 0
    outer loop
      vertex 1 29.15 7.5
      vertex 1 31.15 9.5
      vertex 1 29.15 3.5
    endloop
  endfacet
  facet normal -1 0 0
    outer loop
      vertex 1 3.65 7.5
      vertex 1 31.15 9.5
      vertex 1 29.15 7.5
    endloop
  endfacet
  facet normal -1 0 0
    outer loop
      vertex 1 3.65 7.5
      vertex 1 1.65 9.5
      vertex 1 31.15 9.5
    endloop
  endfacet
  facet normal -1 0 0
    outer loop
      vertex 1 1.65 9.5
      vertex 1 3.65 7.5
      vertex 1 1.65 1.5
    endloop
  endfacet
  facet normal 0 0 -1
    outer loop
      vertex 0 1.65 9.5
      vertex 1 31.15 9.5
      vertex 1 1.65 9.5
    endloop
  endfacet
  facet normal -0 0 -1
    outer loop
      vertex 1 31.15 9.5
      vertex 0 1.65 9.5
      vertex 0 31.15 9.5
    endloop
  endfacet
  facet normal -0 0 1
    outer loop
      vertex 0 31.15 1.5
      vertex 1 1.65 1.5
      vertex 1 31.15 1.5
    endloop
  endfacet
  facet normal 0 0 1
    outer loop
      vertex 1 1.65 1.5
      vertex 0 31.15 1.5
      vertex 0 1.65 1.5
    endloop
  endfacet
  facet normal 0 -1 0
    outer loop
      vertex 0 31.15 1.5
      vertex 1 31.15 9.5
      vertex 0 31.15 9.5
    endloop
  endfacet
  facet normal 0 -1 -0
    outer loop
      vertex 1 31.15 9.5
      vertex 0 31.15 1.5
      vertex 1 31.15 1.5
    endloop
  endfacet
  facet normal 0 1 -0
    outer loop
      vertex 1 1.65 1.5
      vertex 0 1.65 9.5
      vertex 1 1.65 9.5
    endloop
  endfacet
  facet normal 0 1 0
    outer loop
      vertex 0 1.65 9.5
      vertex 1 1.65 1.5
      vertex 0 1.65 1.5
    endloop
  endfacet
  facet normal -0 0.555494 0.831521
    outer loop
      vertex 67.8 15.4 11.768
      vertex 69.8 15.1825 11.9133
      vertex 69.8 15.4 11.768
    endloop
  endfacet
  facet normal 0 0.555494 0.831521
    outer loop
      vertex 69.8 15.1825 11.9133
      vertex 67.8 15.4 11.768
      vertex 67.8 15.1825 11.9133
    endloop
  endfacet
  facet normal 0 -0.94695 0.321382
    outer loop
      vertex 67.8 18.2477 12.7346
      vertex 69.8 18.3318 12.9824
      vertex 67.8 18.3318 12.9824
    endloop
  endfacet
  facet normal 0 -0.94695 0.321382
    outer loop
      vertex 69.8 18.3318 12.9824
      vertex 67.8 18.2477 12.7346
      vertex 69.8 18.2477 12.7346
    endloop
  endfacet
  facet normal 0 -0.0653771 0.997861
    outer loop
      vertex 67.8 16.661 11.5171
      vertex 69.8 16.4 11.5
      vertex 69.8 16.661 11.5171
    endloop
  endfacet
  facet normal 0 -0.0653771 0.997861
    outer loop
      vertex 69.8 16.4 11.5
      vertex 67.8 16.661 11.5171
      vertex 67.8 16.4 11.5
    endloop
  endfacet
  facet normal 0 -0.659343 0.751842
    outer loop
      vertex 67.8 17.8142 12.0858
      vertex 69.8 17.6175 11.9133
      vertex 69.8 17.8142 12.0858
    endloop
  endfacet
  facet normal 0 -0.659343 0.751842
    outer loop
      vertex 69.8 17.6175 11.9133
      vertex 67.8 17.8142 12.0858
      vertex 67.8 17.6175 11.9133
    endloop
  endfacet
  facet normal 0 -0.751842 0.659343
    outer loop
      vertex 67.8 17.8142 12.0858
      vertex 69.8 17.9867 12.2825
      vertex 67.8 17.9867 12.2825
    endloop
  endfacet
  facet normal 0 -0.751842 0.659343
    outer loop
      vertex 69.8 17.9867 12.2825
      vertex 67.8 17.8142 12.0858
      vertex 69.8 17.8142 12.0858
    endloop
  endfacet
  facet normal 0 -0.997861 0.0653771
    outer loop
      vertex 67.8 18.3829 13.239
      vertex 69.8 18.4 13.5
      vertex 67.8 18.4 13.5
    endloop
  endfacet
  facet normal 0 -0.997861 0.0653771
    outer loop
      vertex 69.8 18.4 13.5
      vertex 67.8 18.3829 13.239
      vertex 69.8 18.3829 13.239
    endloop
  endfacet
  facet normal 0 -0.831521 0.555494
    outer loop
      vertex 67.8 17.9867 12.2825
      vertex 69.8 18.132 12.5
      vertex 67.8 18.132 12.5
    endloop
  endfacet
  facet normal 0 -0.831521 0.555494
    outer loop
      vertex 69.8 18.132 12.5
      vertex 67.8 17.9867 12.2825
      vertex 69.8 17.9867 12.2825
    endloop
  endfacet
  facet normal -0 0.442621 0.896709
    outer loop
      vertex 67.8 15.6346 11.6522
      vertex 69.8 15.4 11.768
      vertex 69.8 15.6346 11.6522
    endloop
  endfacet
  facet normal 0 0.442621 0.896709
    outer loop
      vertex 69.8 15.4 11.768
      vertex 67.8 15.6346 11.6522
      vertex 67.8 15.4 11.768
    endloop
  endfacet
  facet normal 0 0.751842 0.659343
    outer loop
      vertex 69.8 14.9858 12.0858
      vertex 67.8 14.8133 12.2825
      vertex 69.8 14.8133 12.2825
    endloop
  endfacet
  facet normal 0 0.751842 0.659343
    outer loop
      vertex 67.8 14.8133 12.2825
      vertex 69.8 14.9858 12.0858
      vertex 67.8 14.9858 12.0858
    endloop
  endfacet
  facet normal 0 -0.195308 0.980742
    outer loop
      vertex 67.8 16.9176 11.5682
      vertex 69.8 16.661 11.5171
      vertex 69.8 16.9176 11.5682
    endloop
  endfacet
  facet normal 0 -0.195308 0.980742
    outer loop
      vertex 69.8 16.661 11.5171
      vertex 67.8 16.9176 11.5682
      vertex 67.8 16.661 11.5171
    endloop
  endfacet
  facet normal 0 -0.89686 0.442314
    outer loop
      vertex 67.8 18.132 12.5
      vertex 69.8 18.2477 12.7346
      vertex 67.8 18.2477 12.7346
    endloop
  endfacet
  facet normal 0 -0.89686 0.442314
    outer loop
      vertex 69.8 18.2477 12.7346
      vertex 67.8 18.132 12.5
      vertex 69.8 18.132 12.5
    endloop
  endfacet
  facet normal 0 1 -0
    outer loop
      vertex 69.8 14.4 13.5
      vertex 67.8 14.4 17.5
      vertex 69.8 14.4 17.5
    endloop
  endfacet
  facet normal 0 1 0
    outer loop
      vertex 67.8 14.4 17.5
      vertex 69.8 14.4 13.5
      vertex 67.8 14.4 13.5
    endloop
  endfacet
  facet normal 0 -0.980742 0.195308
    outer loop
      vertex 67.8 18.3318 12.9824
      vertex 69.8 18.3829 13.239
      vertex 67.8 18.3829 13.239
    endloop
  endfacet
  facet normal 0 -0.980742 0.195308
    outer loop
      vertex 69.8 18.3829 13.239
      vertex 67.8 18.3318 12.9824
      vertex 69.8 18.3318 12.9824
    endloop
  endfacet
  facet normal 0 -0.321039 0.947066
    outer loop
      vertex 67.8 17.1654 11.6522
      vertex 69.8 16.9176 11.5682
      vertex 69.8 17.1654 11.6522
    endloop
  endfacet
  facet normal 0 -0.321039 0.947066
    outer loop
      vertex 69.8 16.9176 11.5682
      vertex 67.8 17.1654 11.6522
      vertex 67.8 16.9176 11.5682
    endloop
  endfacet
  facet normal 0 -1 0
    outer loop
      vertex 67.8 18.4 13.5
      vertex 69.8 18.4 17.5
      vertex 67.8 18.4 17.5
    endloop
  endfacet
  facet normal 0 -1 -0
    outer loop
      vertex 69.8 18.4 17.5
      vertex 67.8 18.4 13.5
      vertex 69.8 18.4 13.5
    endloop
  endfacet
  facet normal -0 0.0653771 0.997861
    outer loop
      vertex 67.8 16.4 11.5
      vertex 69.8 16.139 11.5171
      vertex 69.8 16.4 11.5
    endloop
  endfacet
  facet normal 0 0.0653771 0.997861
    outer loop
      vertex 69.8 16.139 11.5171
      vertex 67.8 16.4 11.5
      vertex 67.8 16.139 11.5171
    endloop
  endfacet
  facet normal 0 -0.555494 0.831521
    outer loop
      vertex 67.8 17.6175 11.9133
      vertex 69.8 17.4 11.768
      vertex 69.8 17.6175 11.9133
    endloop
  endfacet
  facet normal 0 -0.555494 0.831521
    outer loop
      vertex 69.8 17.4 11.768
      vertex 67.8 17.6175 11.9133
      vertex 67.8 17.4 11.768
    endloop
  endfacet
  facet normal 0 0.94695 0.321382
    outer loop
      vertex 69.8 14.5523 12.7346
      vertex 67.8 14.4682 12.9824
      vertex 69.8 14.4682 12.9824
    endloop
  endfacet
  facet normal 0 0.94695 0.321382
    outer loop
      vertex 67.8 14.4682 12.9824
      vertex 69.8 14.5523 12.7346
      vertex 67.8 14.5523 12.7346
    endloop
  endfacet
  facet normal 0 -0.442621 0.896709
    outer loop
      vertex 67.8 17.4 11.768
      vertex 69.8 17.1654 11.6522
      vertex 69.8 17.4 11.768
    endloop
  endfacet
  facet normal 0 -0.442621 0.896709
    outer loop
      vertex 69.8 17.1654 11.6522
      vertex 67.8 17.4 11.768
      vertex 67.8 17.1654 11.6522
    endloop
  endfacet
  facet normal 0 0.980742 0.195308
    outer loop
      vertex 69.8 14.4682 12.9824
      vertex 67.8 14.4171 13.239
      vertex 69.8 14.4171 13.239
    endloop
  endfacet
  facet normal 0 0.980742 0.195308
    outer loop
      vertex 67.8 14.4171 13.239
      vertex 69.8 14.4682 12.9824
      vertex 67.8 14.4682 12.9824
    endloop
  endfacet
  facet normal 0 0.89686 0.442314
    outer loop
      vertex 69.8 14.668 12.5
      vertex 67.8 14.5523 12.7346
      vertex 69.8 14.5523 12.7346
    endloop
  endfacet
  facet normal 0 0.89686 0.442314
    outer loop
      vertex 67.8 14.5523 12.7346
      vertex 69.8 14.668 12.5
      vertex 67.8 14.668 12.5
    endloop
  endfacet
  facet normal 0 0.831521 0.555494
    outer loop
      vertex 69.8 14.8133 12.2825
      vertex 67.8 14.668 12.5
      vertex 69.8 14.668 12.5
    endloop
  endfacet
  facet normal 0 0.831521 0.555494
    outer loop
      vertex 67.8 14.668 12.5
      vertex 69.8 14.8133 12.2825
      vertex 67.8 14.8133 12.2825
    endloop
  endfacet
  facet normal -0 0.321039 0.947066
    outer loop
      vertex 67.8 15.8824 11.5682
      vertex 69.8 15.6346 11.6522
      vertex 69.8 15.8824 11.5682
    endloop
  endfacet
  facet normal 0 0.321039 0.947066
    outer loop
      vertex 69.8 15.6346 11.6522
      vertex 67.8 15.8824 11.5682
      vertex 67.8 15.6346 11.6522
    endloop
  endfacet
  facet normal 0 0.997861 0.0653771
    outer loop
      vertex 69.8 14.4171 13.239
      vertex 67.8 14.4 13.5
      vertex 69.8 14.4 13.5
    endloop
  endfacet
  facet normal 0 0.997861 0.0653771
    outer loop
      vertex 67.8 14.4 13.5
      vertex 69.8 14.4171 13.239
      vertex 67.8 14.4171 13.239
    endloop
  endfacet
  facet normal -0 0.659343 0.751842
    outer loop
      vertex 67.8 15.1825 11.9133
      vertex 69.8 14.9858 12.0858
      vertex 69.8 15.1825 11.9133
    endloop
  endfacet
  facet normal 0 0.659343 0.751842
    outer loop
      vertex 69.8 14.9858 12.0858
      vertex 67.8 15.1825 11.9133
      vertex 67.8 14.9858 12.0858
    endloop
  endfacet
  facet normal -0 0.195308 0.980742
    outer loop
      vertex 67.8 16.139 11.5171
      vertex 69.8 15.8824 11.5682
      vertex 69.8 16.139 11.5171
    endloop
  endfacet
  facet normal 0 0.195308 0.980742
    outer loop
      vertex 69.8 15.8824 11.5682
      vertex 67.8 16.139 11.5171
      vertex 67.8 15.8824 11.5682
    endloop
  endfacet
  facet normal 1 -0 0
    outer loop
      vertex 7 3 3.5
      vertex 7 7 2
      vertex 7 7 3.5
    endloop
  endfacet
  facet normal 1 0 0
    outer loop
      vertex 7 7 2
      vertex 7 3 3.5
      vertex 7 3 2
    endloop
  endfacet
  facet normal -0 0 1
    outer loop
      vertex 3 7 3.5
      vertex 7 3 3.5
      vertex 7 7 3.5
    endloop
  endfacet
  facet normal 0 0 1
    outer loop
      vertex 7 3 3.5
      vertex 3 7 3.5
      vertex 3 3 3.5
    endloop
  endfacet
  facet normal -1 0 0
    outer loop
      vertex 3 3 2
      vertex 3 7 3.5
      vertex 3 7 2
    endloop
  endfacet
  facet normal -1 -0 0
    outer loop
      vertex 3 7 3.5
      vertex 3 3 2
      vertex 3 3 3.5
    endloop
  endfacet
  facet normal 0 1 -0
    outer loop
      vertex 7 7 2
      vertex 3 7 3.5
      vertex 7 7 3.5
    endloop
  endfacet
  facet normal 0 1 0
    outer loop
      vertex 3 7 3.5
      vertex 7 7 2
      vertex 3 7 2
    endloop
  endfacet
  facet normal 0 -1 0
    outer loop
      vertex 3 3 2
      vertex 7 3 3.5
      vertex 3 3 3.5
    endloop
  endfacet
  facet normal 0 -1 -0
    outer loop
      vertex 7 3 3.5
      vertex 3 3 2
      vertex 7 3 2
    endloop
  endfacet
  facet normal 1 -0 0
    outer loop
      vertex 7 25.8 3.5
      vertex 7 29.8 2
      vertex 7 29.8 3.5
    endloop
  endfacet
  facet normal 1 0 0
    outer loop
      vertex 7 29.8 2
      vertex 7 25.8 3.5
      vertex 7 25.8 2
    endloop
  endfacet
  facet normal -0 0 1
    outer loop
      vertex 3 29.8 3.5
      vertex 7 25.8 3.5
      vertex 7 29.8 3.5
    endloop
  endfacet
  facet normal 0 0 1
    outer loop
      vertex 7 25.8 3.5
      vertex 3 29.8 3.5
      vertex 3 25.8 3.5
    endloop
  endfacet
  facet normal -1 0 0
    outer loop
      vertex 3 25.8 2
      vertex 3 29.8 3.5
      vertex 3 29.8 2
    endloop
  endfacet
  facet normal -1 -0 0
    outer loop
      vertex 3 29.8 3.5
      vertex 3 25.8 2
      vertex 3 25.8 3.5
    endloop
  endfacet
  facet normal 0 1 -0
    outer loop
      vertex 7 29.8 2
      vertex 3 29.8 3.5
      vertex 7 29.8 3.5
    endloop
  endfacet
  facet normal 0 1 0
    outer loop
      vertex 3 29.8 3.5
      vertex 7 29.8 2
      vertex 3 29.8 2
    endloop
  endfacet
  facet normal 0 -1 0
    outer loop
      vertex 3 25.8 2
      vertex 7 25.8 3.5
      vertex 3 25.8 3.5
    endloop
  endfacet
  facet normal 0 -1 -0
    outer loop
      vertex 7 25.8 3.5
      vertex 3 25.8 2
      vertex 7 25.8 2
    endloop
  endfacet
  facet normal -0 0 1
    outer loop
      vertex 60.8 6 6
      vertex 67.8 2 6
      vertex 67.8 6 6
    endloop
  endfacet
  facet normal 0 0 1
    outer loop
      vertex 67.8 2 6
      vertex 60.8 6 6
      vertex 60.8 2 6
    endloop
  endfacet
  facet normal -1 0 0
    outer loop
      vertex 60.8 2 2
      vertex 60.8 6 6
      vertex 60.8 6 2
    endloop
  endfacet
  facet normal -1 -0 0
    outer loop
      vertex 60.8 6 6
      vertex 60.8 2 2
      vertex 60.8 2 6
    endloop
  endfacet
  facet normal 0 1 -0
    outer loop
      vertex 67.8 6 2
      vertex 60.8 6 6
      vertex 67.8 6 6
    endloop
  endfacet
  facet normal 0 1 0
    outer loop
      vertex 60.8 6 6
      vertex 67.8 6 2
      vertex 60.8 6 2
    endloop
  endfacet
  facet normal -0 0 1
    outer loop
      vertex 60.8 30.8 6
      vertex 67.8 26.8 6
      vertex 67.8 30.8 6
    endloop
  endfacet
  facet normal 0 0 1
    outer loop
      vertex 67.8 26.8 6
      vertex 60.8 30.8 6
      vertex 60.8 26.8 6
    endloop
  endfacet
  facet normal -1 0 0
    outer loop
      vertex 60.8 26.8 2
      vertex 60.8 30.8 6
      vertex 60.8 30.8 2
    endloop
  endfacet
  facet normal -1 -0 0
    outer loop
      vertex 60.8 30.8 6
      vertex 60.8 26.8 2
      vertex 60.8 26.8 6
    endloop
  endfacet
  facet normal 0 -1 0
    outer loop
      vertex 60.8 26.8 2
      vertex 67.8 26.8 6
      vertex 60.8 26.8 6
    endloop
  endfacet
  facet normal 0 -1 -0
    outer loop
      vertex 67.8 26.8 6
      vertex 60.8 26.8 2
      vertex 67.8 26.8 2
    endloop
  endfacet
endsolid OpenSCAD_Model
