solid OpenSCAD_Model
  facet normal 1 -0 0
    outer loop
      vertex 71.9 -2.1 6
      vertex 71.9 34.9 2
      vertex 71.9 34.9 6
    endloop
  endfacet
  facet normal 1 0 0
    outer loop
      vertex 71.9 34.9 2
      vertex 71.9 -2.1 6
      vertex 71.9 -2.1 2
    endloop
  endfacet
  facet normal 0 0 1
    outer loop
      vertex 71.9 34.9 6
      vertex 70.1 33.1 6
      vertex 71.9 -2.1 6
    endloop
  endfacet
  facet normal 0 0 1
    outer loop
      vertex 71.9 34.9 6
      vertex -0.300001 33.1 6
      vertex 70.1 33.1 6
    endloop
  endfacet
  facet normal 0 0 1
    outer loop
      vertex -0.300001 33.1 6
      vertex -2.1 34.9 6
      vertex -0.300001 -0.300001 6
    endloop
  endfacet
  facet normal -0 0 1
    outer loop
      vertex -2.1 34.9 6
      vertex -0.300001 33.1 6
      vertex 71.9 34.9 6
    endloop
  endfacet
  facet normal -0 0 1
    outer loop
      vertex 70.1 -0.300001 6
      vertex 71.9 -2.1 6
      vertex 70.1 33.1 6
    endloop
  endfacet
  facet normal -0 0 1
    outer loop
      vertex -0.300001 -0.300001 6
      vertex 71.9 -2.1 6
      vertex 70.1 -0.300001 6
    endloop
  endfacet
  facet normal 0 0 1
    outer loop
      vertex -0.300001 -0.300001 6
      vertex -2.1 -2.1 6
      vertex 71.9 -2.1 6
    endloop
  endfacet
  facet normal 0 0 1
    outer loop
      vertex -2.1 -2.1 6
      vertex -0.300001 -0.300001 6
      vertex -2.1 34.9 6
    endloop
  endfacet
  facet normal -0 0 1
    outer loop
      vertex -0.300001 33.1 2
      vertex 70.1 -0.300001 2
      vertex 70.1 33.1 2
    endloop
  endfacet
  facet normal 0 0 1
    outer loop
      vertex 70.1 -0.300001 2
      vertex -0.300001 33.1 2
      vertex -0.300001 -0.300001 2
    endloop
  endfacet
  facet normal -1 0 0
    outer loop
      vertex -2.1 -2.1 2
      vertex -2.1 34.9 6
      vertex -2.1 34.9 2
    endloop
  endfacet
  facet normal -1 -0 0
    outer loop
      vertex -2.1 34.9 6
      vertex -2.1 -2.1 2
      vertex -2.1 -2.1 6
    endloop
  endfacet
  facet normal 0 1 -0
    outer loop
      vertex 71.9 34.9 2
      vertex -2.1 34.9 6
      vertex 71.9 34.9 6
    endloop
  endfacet
  facet normal 0 1 0
    outer loop
      vertex -2.1 34.9 6
      vertex 71.9 34.9 2
      vertex -2.1 34.9 2
    endloop
  endfacet
  facet normal 0 -1 0
    outer loop
      vertex -2.1 -2.1 2
      vertex 71.9 -2.1 6
      vertex -2.1 -2.1 6
    endloop
  endfacet
  facet normal 0 -1 -0
    outer loop
      vertex 71.9 -2.1 6
      vertex -2.1 -2.1 2
      vertex 71.9 -2.1 2
    endloop
  endfacet
  facet normal -1 0 0
    outer loop
      vertex 70.1 -0.300001 2
      vertex 70.1 33.1 6
      vertex 70.1 33.1 2
    endloop
  endfacet
  facet normal -1 -0 0
    outer loop
      vertex 70.1 33.1 6
      vertex 70.1 -0.300001 2
      vertex 70.1 -0.300001 6
    endloop
  endfacet
  facet normal 1 -0 0
    outer loop
      vertex -0.300001 -0.300001 6
      vertex -0.300001 33.1 2
      vertex -0.300001 33.1 6
    endloop
  endfacet
  facet normal 1 0 0
    outer loop
      vertex -0.300001 33.1 2
      vertex -0.300001 -0.300001 6
      vertex -0.300001 -0.300001 2
    endloop
  endfacet
  facet normal 0 -1 0
    outer loop
      vertex -0.300001 33.1 2
      vertex 70.1 33.1 6
      vertex -0.300001 33.1 6
    endloop
  endfacet
  facet normal 0 -1 -0
    outer loop
      vertex 70.1 33.1 6
      vertex -0.300001 33.1 2
      vertex 70.1 33.1 2
    endloop
  endfacet
  facet normal 0 1 -0
    outer loop
      vertex 70.1 -0.300001 2
      vertex -0.300001 -0.300001 6
      vertex 70.1 -0.300001 6
    endloop
  endfacet
  facet normal 0 1 0
    outer loop
      vertex -0.300001 -0.300001 6
      vertex 70.1 -0.300001 2
      vertex -0.300001 -0.300001 2
    endloop
  endfacet
  facet normal 1 -0 0
    outer loop
      vertex 71.9 -2.1 2
      vertex 71.9 34.9 0
      vertex 71.9 34.9 2
    endloop
  endfacet
  facet normal 1 0 0
    outer loop
      vertex 71.9 34.9 0
      vertex 71.9 -2.1 2
      vertex 71.9 -2.1 0
    endloop
  endfacet
  facet normal 0 0 -1
    outer loop
      vertex -2.1 -2.1 0
      vertex 71.9 34.9 0
      vertex 71.9 -2.1 0
    endloop
  endfacet
  facet normal -0 0 -1
    outer loop
      vertex 71.9 34.9 0
      vertex -2.1 -2.1 0
      vertex -2.1 34.9 0
    endloop
  endfacet
  facet normal -1 0 0
    outer loop
      vertex -2.1 -2.1 0
      vertex -2.1 34.9 2
      vertex -2.1 34.9 0
    endloop
  endfacet
  facet normal -1 -0 0
    outer loop
      vertex -2.1 34.9 2
      vertex -2.1 -2.1 0
      vertex -2.1 -2.1 2
    endloop
  endfacet
  facet normal 0 1 -0
    outer loop
      vertex 71.9 34.9 0
      vertex -2.1 34.9 2
      vertex 71.9 34.9 2
    endloop
  endfacet
  facet normal 0 1 0
    outer loop
      vertex -2.1 34.9 2
      vertex 71.9 34.9 0
      vertex -2.1 34.9 0
    endloop
  endfacet
  facet normal 0 -1 0
    outer loop
      vertex -2.1 -2.1 0
      vertex 71.9 -2.1 2
      vertex -2.1 -2.1 2
    endloop
  endfacet
  facet normal 0 -1 -0
    outer loop
      vertex 71.9 -2.1 2
      vertex -2.1 -2.1 0
      vertex 71.9 -2.1 0
    endloop
  endfacet
endsolid OpenSCAD_Model
